<svg width="51" height="57" viewBox="0 0 51 57" fill="none" xmlns="http://www.w3.org/2000/svg">
<path d="M26.5393 56.0723L41.6562 48.5167C47.33 45.6814 50.9149 39.8845 50.9149 33.5425V5.1158C50.9149 4.59981 50.4513 4.20492 49.9403 4.28916L46.5423 4.85517C41.2242 5.74236 35.7612 4.89466 30.9619 2.43845L26.5604 0.187572C26.0757 -0.0625241 25.5015 -0.0625241 25.0194 0.187572L20.6179 2.43845C15.8187 4.89466 10.3556 5.74236 5.03745 4.85517L1.63951 4.28916C1.1285 4.20492 0.664917 4.59718 0.664917 5.1158V33.5425C0.664917 39.8845 4.24985 45.6814 9.92362 48.5167L25.0405 56.0723C25.512 56.3092 26.0678 56.3092 26.5393 56.0723Z" fill="#0086FF"/>
<path d="M25.7886 56.2487C26.0441 56.2487 26.3022 56.1908 26.5367 56.0723L41.6535 48.5167C47.3273 45.6814 50.9123 39.8845 50.9123 33.5425V5.1158C50.9123 4.59981 50.4487 4.20492 49.9376 4.28916L46.5397 4.85518C41.2215 5.74236 35.7585 4.89467 30.9592 2.43846L26.5577 0.187575C26.3154 0.0612108 26.052 0.000671387 25.7859 0.000671387V56.2487H25.7886Z" fill="#0072D9"/>
</svg>
